<mxfile host="app.diagrams.net" modified="2021-06-21T01:30:40.718Z" agent="5.0 (Windows)" etag="Atog3GMBLgab0S2zxvDy" version="14.7.10" type="github">
  <diagram id="s6rZOBsphtj_oMAfrukd" name="Page-1">
    <mxGraphModel dx="1422" dy="780" grid="0" gridSize="10" guides="1" tooltips="1" connect="1" arrows="1" fold="1" page="1" pageScale="1" pageWidth="827" pageHeight="1169" math="0" shadow="0">
      <root>
        <mxCell id="0" />
        <mxCell id="1" parent="0" />
        <mxCell id="ySP3lJrqjZEHJ7ol25Yn-17" value="" style="rounded=1;whiteSpace=wrap;html=1;fontSize=17;" parent="1" vertex="1">
          <mxGeometry x="692" y="473" width="113" height="189" as="geometry" />
        </mxCell>
        <mxCell id="ySP3lJrqjZEHJ7ol25Yn-16" value="" style="rounded=1;whiteSpace=wrap;html=1;fontSize=17;" parent="1" vertex="1">
          <mxGeometry x="168" y="160" width="230" height="189" as="geometry" />
        </mxCell>
        <mxCell id="ySP3lJrqjZEHJ7ol25Yn-1" value="INTERNET" style="text;html=1;strokeColor=none;fillColor=none;align=center;verticalAlign=middle;whiteSpace=wrap;rounded=0;fontSize=17;" parent="1" vertex="1">
          <mxGeometry x="47" y="181" width="64" height="20" as="geometry" />
        </mxCell>
        <mxCell id="ySP3lJrqjZEHJ7ol25Yn-2" value="鄞州区卫健局机房" style="text;html=1;strokeColor=none;fillColor=none;align=center;verticalAlign=middle;whiteSpace=wrap;rounded=0;fontSize=17;" parent="1" vertex="1">
          <mxGeometry x="222" y="184" width="151" height="20" as="geometry" />
        </mxCell>
        <mxCell id="ySP3lJrqjZEHJ7ol25Yn-4" value="云HIS" style="text;html=1;strokeColor=none;fillColor=none;align=center;verticalAlign=middle;whiteSpace=wrap;rounded=0;fontSize=17;" parent="1" vertex="1">
          <mxGeometry x="723.5" y="484" width="52" height="20" as="geometry" />
        </mxCell>
        <mxCell id="ySP3lJrqjZEHJ7ol25Yn-5" value="" style="points=[[0.015,0.015,0],[0.985,0.015,0],[0.985,0.985,0],[0.015,0.985,0],[0.25,0,0],[0.5,0,0],[0.75,0,0],[1,0.25,0],[1,0.5,0],[1,0.75,0],[0.75,1,0],[0.5,1,0],[0.25,1,0],[0,0.75,0],[0,0.5,0],[0,0.25,0]];verticalLabelPosition=bottom;html=1;verticalAlign=top;aspect=fixed;align=center;pointerEvents=1;shape=mxgraph.cisco19.rect;prIcon=acs;fillColor=#FAFAFA;strokeColor=#005073;" parent="1" vertex="1">
          <mxGeometry x="461" y="283.25" width="70.4" height="55" as="geometry" />
        </mxCell>
        <mxCell id="ySP3lJrqjZEHJ7ol25Yn-6" value="VM" style="pointerEvents=1;shadow=0;dashed=0;html=1;strokeColor=none;fillColor=#005F4B;labelPosition=center;verticalLabelPosition=bottom;verticalAlign=top;align=center;outlineConnect=0;shape=mxgraph.veeam2.vm_snapshot;fontSize=17;" parent="1" vertex="1">
          <mxGeometry x="715.25" y="548.5" width="65" height="53" as="geometry" />
        </mxCell>
        <mxCell id="ySP3lJrqjZEHJ7ol25Yn-8" value="" style="shape=flexArrow;endArrow=classic;html=1;fontSize=17;" parent="1" edge="1">
          <mxGeometry width="50" height="50" relative="1" as="geometry">
            <mxPoint x="26" y="309.5" as="sourcePoint" />
            <mxPoint x="146" y="309.5" as="targetPoint" />
          </mxGeometry>
        </mxCell>
        <mxCell id="ySP3lJrqjZEHJ7ol25Yn-12" style="edgeStyle=orthogonalEdgeStyle;rounded=0;orthogonalLoop=1;jettySize=auto;html=1;entryX=0;entryY=0.5;entryDx=0;entryDy=0;fontSize=17;" parent="1" source="ySP3lJrqjZEHJ7ol25Yn-9" target="ySP3lJrqjZEHJ7ol25Yn-11" edge="1">
          <mxGeometry relative="1" as="geometry" />
        </mxCell>
        <mxCell id="ySP3lJrqjZEHJ7ol25Yn-9" value="" style="points=[[0.015,0.015,0],[0.985,0.015,0],[0.985,0.985,0],[0.015,0.985,0],[0.25,0,0],[0.5,0,0],[0.75,0,0],[1,0.25,0],[1,0.5,0],[1,0.75,0],[0.75,1,0],[0.5,1,0],[0.25,1,0],[0,0.75,0],[0,0.5,0],[0,0.25,0]];verticalLabelPosition=bottom;html=1;verticalAlign=top;aspect=fixed;align=center;pointerEvents=1;shape=mxgraph.cisco19.rect;prIcon=asa_5500;fillColor=#FAFAFA;strokeColor=#005073;fontSize=17;" parent="1" vertex="1">
          <mxGeometry x="174" y="285" width="64" height="50" as="geometry" />
        </mxCell>
        <mxCell id="ySP3lJrqjZEHJ7ol25Yn-13" style="edgeStyle=orthogonalEdgeStyle;rounded=0;orthogonalLoop=1;jettySize=auto;html=1;entryX=0;entryY=0.5;entryDx=0;entryDy=0;entryPerimeter=0;fontSize=17;" parent="1" source="ySP3lJrqjZEHJ7ol25Yn-11" target="ySP3lJrqjZEHJ7ol25Yn-5" edge="1">
          <mxGeometry relative="1" as="geometry" />
        </mxCell>
        <mxCell id="ySP3lJrqjZEHJ7ol25Yn-11" value="" style="shape=image;html=1;verticalAlign=top;verticalLabelPosition=bottom;labelBackgroundColor=#ffffff;imageAspect=0;aspect=fixed;image=https://cdn4.iconfinder.com/data/icons/logos-brands-5/24/nginx-128.png;fontSize=17;" parent="1" vertex="1">
          <mxGeometry x="314" y="281.75" width="56.5" height="56.5" as="geometry" />
        </mxCell>
        <mxCell id="cA5MacE3D-rgD2qLPpY8-1" value="" style="rounded=1;whiteSpace=wrap;html=1;fontSize=17;" parent="1" vertex="1">
          <mxGeometry x="132" y="473" width="530" height="193" as="geometry" />
        </mxCell>
        <mxCell id="cA5MacE3D-rgD2qLPpY8-3" value="INTERNET" style="text;html=1;strokeColor=none;fillColor=none;align=center;verticalAlign=middle;whiteSpace=wrap;rounded=0;fontSize=17;" parent="1" vertex="1">
          <mxGeometry x="44" y="494" width="64" height="20" as="geometry" />
        </mxCell>
        <mxCell id="cA5MacE3D-rgD2qLPpY8-4" value="外网" style="text;html=1;strokeColor=none;fillColor=none;align=center;verticalAlign=middle;whiteSpace=wrap;rounded=0;fontSize=17;" parent="1" vertex="1">
          <mxGeometry x="362" y="484" width="63.25" height="20" as="geometry" />
        </mxCell>
        <mxCell id="H4xJdEb742bAa2yVw76X-4" style="edgeStyle=orthogonalEdgeStyle;rounded=0;orthogonalLoop=1;jettySize=auto;html=1;entryX=0;entryY=0.5;entryDx=0;entryDy=0;entryPerimeter=0;endArrow=none;endFill=0;" edge="1" parent="1" source="cA5MacE3D-rgD2qLPpY8-7" target="H4xJdEb742bAa2yVw76X-3">
          <mxGeometry relative="1" as="geometry" />
        </mxCell>
        <mxCell id="cA5MacE3D-rgD2qLPpY8-7" value="WAF" style="points=[[0.015,0.015,0],[0.985,0.015,0],[0.985,0.985,0],[0.015,0.985,0],[0.25,0,0],[0.5,0,0],[0.75,0,0],[1,0.25,0],[1,0.5,0],[1,0.75,0],[0.75,1,0],[0.5,1,0],[0.25,1,0],[0,0.75,0],[0,0.5,0],[0,0.25,0]];verticalLabelPosition=bottom;html=1;verticalAlign=top;aspect=fixed;align=center;pointerEvents=1;shape=mxgraph.cisco19.rect;prIcon=acs;fillColor=#FAFAFA;strokeColor=#005073;" parent="1" vertex="1">
          <mxGeometry x="243.6" y="547.5" width="70.4" height="55" as="geometry" />
        </mxCell>
        <mxCell id="H4xJdEb742bAa2yVw76X-7" style="edgeStyle=orthogonalEdgeStyle;rounded=0;orthogonalLoop=1;jettySize=auto;html=1;entryX=0;entryY=0.5;entryDx=0;entryDy=0;entryPerimeter=0;endArrow=none;endFill=0;" edge="1" parent="1" source="cA5MacE3D-rgD2qLPpY8-9" target="H4xJdEb742bAa2yVw76X-6">
          <mxGeometry relative="1" as="geometry" />
        </mxCell>
        <mxCell id="cA5MacE3D-rgD2qLPpY8-9" value="VM" style="pointerEvents=1;shadow=0;dashed=0;html=1;strokeColor=none;fillColor=#005F4B;labelPosition=center;verticalLabelPosition=bottom;verticalAlign=top;align=center;outlineConnect=0;shape=mxgraph.veeam2.vm_snapshot;fontSize=17;" parent="1" vertex="1">
          <mxGeometry x="448" y="549.5" width="65" height="53" as="geometry" />
        </mxCell>
        <mxCell id="cA5MacE3D-rgD2qLPpY8-11" value="" style="shape=flexArrow;endArrow=classic;html=1;fontSize=17;" parent="1" edge="1">
          <mxGeometry width="50" height="50" relative="1" as="geometry">
            <mxPoint x="24" y="574.5" as="sourcePoint" />
            <mxPoint x="123" y="575" as="targetPoint" />
          </mxGeometry>
        </mxCell>
        <mxCell id="cA5MacE3D-rgD2qLPpY8-12" style="edgeStyle=orthogonalEdgeStyle;rounded=0;orthogonalLoop=1;jettySize=auto;html=1;entryX=0;entryY=0.5;entryDx=0;entryDy=0;fontSize=17;entryPerimeter=0;endArrow=none;endFill=0;" parent="1" source="cA5MacE3D-rgD2qLPpY8-13" target="cA5MacE3D-rgD2qLPpY8-7" edge="1">
          <mxGeometry relative="1" as="geometry">
            <mxPoint x="311" y="623" as="targetPoint" />
          </mxGeometry>
        </mxCell>
        <mxCell id="cA5MacE3D-rgD2qLPpY8-13" value="防火墙" style="points=[[0.015,0.015,0],[0.985,0.015,0],[0.985,0.985,0],[0.015,0.985,0],[0.25,0,0],[0.5,0,0],[0.75,0,0],[1,0.25,0],[1,0.5,0],[1,0.75,0],[0.75,1,0],[0.5,1,0],[0.25,1,0],[0,0.75,0],[0,0.5,0],[0,0.25,0]];verticalLabelPosition=bottom;html=1;verticalAlign=top;aspect=fixed;align=center;pointerEvents=1;shape=mxgraph.cisco19.rect;prIcon=asa_5500;fillColor=#FAFAFA;strokeColor=#005073;fontSize=17;" parent="1" vertex="1">
          <mxGeometry x="150" y="550" width="64" height="50" as="geometry" />
        </mxCell>
        <mxCell id="H4xJdEb742bAa2yVw76X-5" style="edgeStyle=orthogonalEdgeStyle;rounded=0;orthogonalLoop=1;jettySize=auto;html=1;endArrow=none;endFill=0;" edge="1" parent="1" source="H4xJdEb742bAa2yVw76X-3" target="cA5MacE3D-rgD2qLPpY8-9">
          <mxGeometry relative="1" as="geometry" />
        </mxCell>
        <mxCell id="H4xJdEb742bAa2yVw76X-3" value="ACG" style="points=[[0.015,0.015,0],[0.985,0.015,0],[0.985,0.985,0],[0.015,0.985,0],[0.25,0,0],[0.5,0,0],[0.75,0,0],[1,0.25,0],[1,0.5,0],[1,0.75,0],[0.75,1,0],[0.5,1,0],[0.25,1,0],[0,0.75,0],[0,0.5,0],[0,0.25,0]];verticalLabelPosition=bottom;html=1;verticalAlign=top;aspect=fixed;align=center;pointerEvents=1;shape=mxgraph.cisco19.rect;prIcon=net_mgmt_appliance;fillColor=#FAFAFA;strokeColor=#005073;" vertex="1" parent="1">
          <mxGeometry x="351" y="546.5" width="57.5" height="57.5" as="geometry" />
        </mxCell>
        <mxCell id="H4xJdEb742bAa2yVw76X-8" style="edgeStyle=orthogonalEdgeStyle;rounded=0;orthogonalLoop=1;jettySize=auto;html=1;endArrow=none;endFill=0;" edge="1" parent="1" source="H4xJdEb742bAa2yVw76X-6" target="ySP3lJrqjZEHJ7ol25Yn-6">
          <mxGeometry relative="1" as="geometry" />
        </mxCell>
        <mxCell id="H4xJdEb742bAa2yVw76X-6" value="防火墙" style="points=[[0.015,0.015,0],[0.985,0.015,0],[0.985,0.985,0],[0.015,0.985,0],[0.25,0,0],[0.5,0,0],[0.75,0,0],[1,0.25,0],[1,0.5,0],[1,0.75,0],[0.75,1,0],[0.5,1,0],[0.25,1,0],[0,0.75,0],[0,0.5,0],[0,0.25,0]];verticalLabelPosition=bottom;html=1;verticalAlign=top;aspect=fixed;align=center;pointerEvents=1;shape=mxgraph.cisco19.rect;prIcon=asa_5500;fillColor=#FAFAFA;strokeColor=#005073;fontSize=17;" vertex="1" parent="1">
          <mxGeometry x="562" y="550.5" width="64" height="50" as="geometry" />
        </mxCell>
      </root>
    </mxGraphModel>
  </diagram>
</mxfile>
